<svg width="512" height="512" viewBox="0 0 512 512" fill="none" xmlns="http://www.w3.org/2000/svg">
<g clip-path="url(#clip0_25_2)">
<circle cx="257" cy="256" r="256" fill="url(#paint0_linear_25_2)"/>
<path d="M361 269.632C361 335.371 315.062 368.24 260.463 387.304C257.603 388.275 254.498 388.229 251.669 387.173C196.938 368.24 151 335.371 151 269.632V177.597C151 174.11 152.383 170.766 154.844 168.3C157.306 165.835 160.644 164.449 164.125 164.449C190.375 164.449 223.187 148.672 246.025 128.687C248.806 126.308 252.343 125 256 125C259.657 125 263.194 126.308 265.975 128.687C288.944 148.803 321.625 164.449 347.875 164.449C351.356 164.449 354.694 165.835 357.156 168.3C359.617 170.766 361 174.11 361 177.597V269.632Z" stroke="white" stroke-width="25" stroke-linecap="round" stroke-linejoin="round"/>
</g>
<defs>
<linearGradient id="paint0_linear_25_2" x1="1" y1="0" x2="513" y2="512" gradientUnits="userSpaceOnUse">
<stop offset="0.145734" stop-color="#008A00"/>
<stop offset="1" stop-color="#008000"/>
</linearGradient>
<clipPath id="clip0_25_2">
<rect width="512" height="512" fill="white"/>
</clipPath>
</defs>
</svg>
